<svg id="Approved" xmlns="http://www.w3.org/2000/svg" width="20" height="20" viewBox="0 0 20 20">
  <path id="icon" d="M8.912,20a6.748,6.748,0,0,1-2.248-.382,4.914,4.914,0,0,1-1.01-.491A2,2,0,0,1,4,20H2a2,2,0,0,1-2-2V9A2,2,0,0,1,2,7H4a1.993,1.993,0,0,1,.571.083c.7-1.016,2.461-3.032,3.879-4.652C9.184,1.594,9.877.8,10.221.374l.3-.374H11a5.89,5.89,0,0,1,1.749.222A2.794,2.794,0,0,1,15,3a6.353,6.353,0,0,1-.262,1.689c-.109.394-.241.792-.441,1.329l-.121.32-.043.114,0,.005c-.08.21-.151.4-.176.466l-.011.03-.006.015L13.928,7H17a2.954,2.954,0,0,1,2.2.869A3.046,3.046,0,0,1,20,10a21.517,21.517,0,0,1-.967,7.229C18.348,19.067,17.327,20,16,20H8.912ZM11.461,2.015c-.54.645-1.308,1.521-2.051,2.368l-.024.027A42.641,42.641,0,0,0,6.142,8.32,1.64,1.64,0,0,0,6,9v7a1.7,1.7,0,0,0,1.337,1.735A4.822,4.822,0,0,0,8.894,18H16c.5,0,1.008-.8,1.381-2.2A23.719,23.719,0,0,0,18,10a.886.886,0,0,0-1-1H13a1.233,1.233,0,0,1-1.032-.418,1.752,1.752,0,0,1-.163-1.5,8.065,8.065,0,0,1,.274-.846c.032-.087.121-.32.2-.533l.113-.3,0-.005.027-.073c.177-.473.3-.831.388-1.162A4.5,4.5,0,0,0,13,3c0-.447-.227-.687-.811-.858A3.436,3.436,0,0,0,11.461,2.015ZM2,9H2v9H4V9Z" fill="#323c4e"/>
</svg>
