<svg xmlns="http://www.w3.org/2000/svg" width="61.678" height="55.776" viewBox="0 0 61.678 55.776">
  <path id="DaoMember" d="M199.515,173.475a18.6,18.6,0,0,0-17.223-11.612h-.031a18.557,18.557,0,0,0-12.221,4.573,18.619,18.619,0,0,0-28.08,23.8,5.558,5.558,0,0,0,4.005,9.415c.114,0,.228,0,.341-.011-.007.114-.011.229-.011.344h0a5.557,5.557,0,0,0,5.561,5.558c.114,0,.228,0,.341-.011-.007.114-.011.229-.011.344a5.554,5.554,0,0,0,5.561,5.557c.115,0,.23,0,.344-.011a5.56,5.56,0,0,0,9.478,4.276l.225-.225h0a1.392,1.392,0,0,0,.359.62,5.245,5.245,0,0,0,8.883-2.837,5.247,5.247,0,0,0,7.042-5.137c.069,0,.138,0,.208,0h0a5.243,5.243,0,0,0,5.242-5.456c.069,0,.139,0,.209,0h0a5.246,5.246,0,0,0,4.553-7.856l1.145-1.183a18.638,18.638,0,0,0,4.081-20.16Zm-55.509,22.578a2.771,2.771,0,0,1,0-3.919l4.481-4.481h0a2.771,2.771,0,1,1,3.919,3.92l-4.481,4.481a2.774,2.774,0,0,1-3.919,0Zm5.89,5.891a2.773,2.773,0,0,1,0-3.92l4.481-4.481h0a2.772,2.772,0,0,1,3.919,3.92l-4.481,4.481a2.775,2.775,0,0,1-3.92,0Zm5.893,5.891a2.771,2.771,0,0,1,0-3.919l4.481-4.481a2.771,2.771,0,1,1,3.919,3.919l-4.481,4.481a2.774,2.774,0,0,1-3.919,0Zm9.811,5.891h0a2.771,2.771,0,0,1-3.919-3.919l4.481-4.482a2.772,2.772,0,0,1,3.919,3.92Zm8,.394h0a2.461,2.461,0,0,1-3.477,0,1.386,1.386,0,0,0-.62-.359l2.544-2.544h0a5.616,5.616,0,0,0,.864-1.116l.91.8a2.462,2.462,0,0,1-.221,3.221Zm17.87-14.956a2.458,2.458,0,0,1-3.477,0l-7.368-7.369a1.395,1.395,0,0,0-1.972,1.972l3.685,3.684,3.685,3.685h0a2.458,2.458,0,1,1-3.476,3.477l-3.685-3.684-3.683-3.685a1.395,1.395,0,0,0-1.972,1.972l7.368,7.368a2.459,2.459,0,0,1-3.477,3.477c-.022-.022-.044-.043-.068-.062l-1.191-1.043c-.084-.1-.172-.193-.265-.285h0a1.4,1.4,0,0,0-.356-.257l-1.545-1.354a5.554,5.554,0,0,0-5.9-5.322c.007-.114.011-.229.011-.344h0a5.555,5.555,0,0,0-5.9-5.547c.007-.114.011-.229.011-.344h0a5.555,5.555,0,0,0-5.9-5.547c.007-.114.011-.229.011-.344h0a5.56,5.56,0,0,0-9.492-3.932L144,188.2a15.83,15.83,0,0,1,13.821-23.545,15.708,15.708,0,0,1,10.092,3.633l-10.945,9-.031.026h0a3.347,3.347,0,0,0,.755,5.544,11.247,11.247,0,0,0,4.753.97,13.88,13.88,0,0,0,1.7-.1,14.862,14.862,0,0,0,4.14-1.147,17.285,17.285,0,0,0,4.3-2.727h0a.556.556,0,0,1,.571-.1,18.211,18.211,0,0,0,3.454,1.007l14.874,14.935a2.458,2.458,0,0,1,0,3.477Zm1.978-7.5-.016.017-.992,1.025-11.7-11.743a12.676,12.676,0,0,0,3.081-.664,12.438,12.438,0,0,0,4.334-2.646,1.395,1.395,0,0,0-1.9-2.045c-4.346,4.037-9.9,2.425-12.078,1.544a3.337,3.337,0,0,0-3.427.565,13.3,13.3,0,0,1-6.965,3.223,9.317,9.317,0,0,1-4.909-.616h0a.536.536,0,0,1-.307-.422.548.548,0,0,1,.176-.489l12.166-10,.031-.026c.052-.046.1-.093.155-.144a15.828,15.828,0,0,1,22.344,22.423Z" transform="translate(-139.202 -161.857)" fill="#fff"/>
</svg>
