<svg xmlns="http://www.w3.org/2000/svg" width="26.001" height="25.886" viewBox="0 0 26.001 25.886">
  <g id="Filter" transform="translate(-510.499 -220.501)">
    <path id="Union_28" data-name="Union 28" d="M8471.512,3970.836a5.494,5.494,0,1,1,5.494,5.494A5.5,5.5,0,0,1,8471.512,3970.836Zm-12.012,5.494a2,2,0,0,1-2-2v-6.989a2,2,0,0,1,2-2h6.987a2,2,0,0,1,2,2v6.989a2,2,0,0,1-2,2Zm14.013-13.9a2,2,0,0,1-2-2v-6.989a2,2,0,0,1,2-2h6.986a2,2,0,0,1,2,2v6.989a2,2,0,0,1-2,2Zm-14.013,0a2,2,0,0,1-2-2v-6.989a2,2,0,0,1,2-2h6.987a2,2,0,0,1,2,2v6.989a2,2,0,0,1-2,2Z" transform="translate(-7946.5 -3730.444)" fill="#5d6a7b" stroke="rgba(0,0,0,0)" stroke-miterlimit="10" stroke-width="1"/>
  </g>
</svg>
