<svg id="Rejected" xmlns="http://www.w3.org/2000/svg" width="20" height="20" viewBox="0 0 20 20">
  <path id="icon" d="M11.025,20h-.5l-.3-.373c-.326-.406-.956-1.127-1.686-1.96l-.085-.1-.008-.009c-1.417-1.62-3.18-3.636-3.871-4.642A2,2,0,0,1,4,13H2a2,2,0,0,1-2-2V2A2,2,0,0,1,2,0H4A2,2,0,0,1,5.653.875,4.9,4.9,0,0,1,6.664.382,6.717,6.717,0,0,1,8.89,0H16c1.327,0,2.347.932,3.033,2.771A21.517,21.517,0,0,1,20,10a3.047,3.047,0,0,1-.8,2.131A2.954,2.954,0,0,1,17,13H13.928l.01.027.009.024.009.025c.026.07.1.254.167.441l0,.008c.072.189.144.379.173.456.2.532.334.942.441,1.328A6.366,6.366,0,0,1,15,17a2.792,2.792,0,0,1-2.252,2.777A5.8,5.8,0,0,1,11.025,20ZM8.9,2a4.819,4.819,0,0,0-1.559.266A1.7,1.7,0,0,0,6,4v7a1.674,1.674,0,0,0,.141.68,42.724,42.724,0,0,0,3.265,3.933l.017.02c.779.889,1.515,1.728,2.036,2.352a3.45,3.45,0,0,0,.729-.127c.584-.171.811-.412.811-.858a4.5,4.5,0,0,0-.19-1.158c-.092-.333-.212-.692-.388-1.162l-.046-.123-.107-.282-.051-.134c-.06-.159-.116-.307-.14-.371a8.329,8.329,0,0,1-.274-.846,1.754,1.754,0,0,1,.163-1.506A1.233,1.233,0,0,1,13,11h4a.886.886,0,0,0,1-1,23.719,23.719,0,0,0-.619-5.8C17.008,2.8,16.505,2,16,2H8.9ZM2,2v9H4V2Z" fill="#fff"/>
</svg>
