<svg xmlns="http://www.w3.org/2000/svg" width="24" height="24" viewBox="0 0 57 57" fill="currentColor">
  <g id="Submit" transform="translate(-1182.308 -294.368)">
    <path id="Union_27" data-name="Union 27" d="M-5918.891,3998.275v-23l-4.357,4.366a3.592,3.592,0,0,1-5.071,0h0a3.609,3.609,0,0,1,0-5.083l10.484-10.505a3.576,3.576,0,0,1,2.586-1.046,3.571,3.571,0,0,1,2.589,1.046l10.484,10.505a3.609,3.609,0,0,1,0,5.083,3.594,3.594,0,0,1-5.072,0l-4.469-4.48v23.116a3.6,3.6,0,0,1-3.587,3.593A3.6,3.6,0,0,1-5918.891,3998.275Zm-10.426-.1a28.029,28.029,0,0,1-5.683-4.4,28.14,28.14,0,0,1,0-39.7,28,28,0,0,1,39.616,0,28.139,28.139,0,0,1,0,39.7,28.137,28.137,0,0,1-5.654,4.383,2.492,2.492,0,0,1-3.413-.892,2.5,2.5,0,0,1,.89-3.422,23.161,23.161,0,0,0,4.65-3.6,22.943,22.943,0,0,0,6.743-16.313,22.943,22.943,0,0,0-6.743-16.313,23.02,23.02,0,0,0-32.561,0,22.942,22.942,0,0,0-6.744,16.313,22.942,22.942,0,0,0,6.744,16.313,23.12,23.12,0,0,0,4.672,3.617,2.5,2.5,0,0,1,.894,3.419,2.488,2.488,0,0,1-2.155,1.24A2.465,2.465,0,0,1-5929.317,3998.17Z" transform="translate(7126 -3651)" fill="currentColor"/>
  </g>
</svg>
