<svg viewBox="0 0 797 157" preserveAspectRatio="xMidYMid meet" fill="none" xmlns="http://www.w3.org/2000/svg">
<path d="M148.232 107.141V49.5719H157.042V73.4978H158.405C161.985 69.537 169.112 61.5636 179.796 49.5719H191.331C187.004 54.3387 178.382 63.7858 165.457 77.9134C169.94 82.7838 178.888 92.5246 192.291 107.141H180.354C176.721 103.071 169.405 94.9367 158.405 82.732H157.042V107.141H148.232Z" fill="currentColor"/>
<path d="M194.691 107.141C197.416 97.5619 202.864 78.3682 211.031 49.5719H226.652C229.377 59.1515 234.825 78.3452 242.992 107.141H233.86C233.216 104.896 231.963 100.371 230.095 93.5723H207.588C207.002 95.8175 205.743 100.343 203.824 107.141H194.691ZM209.83 85.3802H227.854C226.463 80.2968 223.687 70.2048 219.526 55.1101H218.164C216.773 60.1417 213.997 70.2336 209.836 85.3802H209.83Z" fill="currentColor"/>
<path d="M248.61 107.141V49.5719H271.6C279.238 49.5719 285.083 51.5293 289.141 55.4325C293.25 59.3415 295.308 65.202 295.308 73.0142V83.774C295.308 91.6437 293.25 97.5043 289.141 101.356C285.083 105.207 279.233 107.136 271.6 107.136H248.61V107.141ZM257.582 99.1105H271.68C276.646 99.1105 280.33 97.8555 282.738 95.3397C285.141 92.7721 286.342 88.9955 286.342 84.0158V72.6918C286.342 67.6603 285.141 63.9125 282.738 61.4485C280.336 58.9903 276.652 57.7583 271.68 57.7583H257.582V99.1105Z" fill="currentColor"/>
<path d="M305.319 107.141V49.5719H341.447V57.6835H314.13V74.1426H339.206V82.2541H314.13V99.1163H341.85V107.147H305.319V107.141Z" fill="currentColor"/>
<path d="M351.15 107.141V49.5719H368.214C370.778 58.1901 375.956 75.3976 383.755 101.2H385.117V49.5719H393.848V107.141H376.784C374.22 98.5233 369.042 81.287 361.243 55.4325H359.881V107.141H351.15Z" fill="currentColor"/>
<path d="M401.607 107.141C404.331 97.5619 409.78 78.3682 417.947 49.5719H433.568C436.293 59.1515 441.741 78.3452 449.908 107.141H440.776C440.132 104.896 438.879 100.371 437.011 93.5723H414.504C413.918 95.8175 412.659 100.343 410.74 107.141H401.607ZM416.746 85.3802H434.77C433.379 80.2968 430.603 70.2048 426.442 55.1101H425.08C423.689 60.1417 420.913 70.2336 416.752 85.3802H416.746Z" fill="currentColor"/>
<path d="M131.157 126.717H96.1324L96.1094 126.7L95.8336 126.487L52.4293 92.6069L70.1945 78.3585L130.864 126.487L131.157 126.717Z" fill="#4A9079"/>
<path d="M131.157 30.0005H96.1324L96.1094 30.0178L95.8336 30.2308L52.4293 64.1105L70.1945 78.359L130.864 30.2308L131.157 30.0005Z" fill="#4A9079"/>
<path d="M52.4354 80.5063V92.5729V92.6132L52.4412 126.487V126.717L52.4182 126.7L52.1481 126.487L31.0264 109.792L30.9747 109.752L30.6701 109.516V47.2023L30.9747 46.9663L31.0264 46.926L52.1481 30.2308L52.4182 30.0178L52.4412 30.0005V30.2308L52.4354 64.1048V64.1451V78.359V80.5063Z" fill="#4A9079"/>
<path d="M30.6682 78.3585H30.6567V80.5058H30.6682V78.3585Z" fill="currentColor"/>
<path d="M52.4351 78.3585H52.4293V80.5058H52.4351V78.3585Z" fill="currentColor"/>
<path d="M575.37 97.8005C571.02 97.8005 567.553 96.543 564.97 94.0281C562.387 91.5132 561.096 87.8428 561.096 83.0168C561.096 81.1477 561.096 78.3608 561.096 74.6564C561.096 69.7965 562.387 66.1091 564.97 63.5942C567.553 61.0793 571.02 59.8218 575.37 59.8218C579.686 59.8218 582.999 61.0283 585.31 63.4413C587.621 65.8202 588.777 69.0998 588.777 73.28C588.777 73.348 588.777 73.433 588.777 73.5349C588.063 73.5349 586.619 73.5349 584.444 73.5349C584.444 73.467 584.444 73.331 584.444 73.1271C584.444 70.3743 583.713 68.1143 582.252 66.347C580.756 64.6138 578.462 63.7471 575.37 63.7471C572.277 63.7471 569.864 64.6817 568.131 66.5509C566.364 68.4541 565.48 71.122 565.48 74.5545C565.48 76.4577 565.48 79.3124 565.48 83.1188C565.48 86.5173 566.364 89.1682 568.131 91.0714C569.864 92.9746 572.277 93.9262 575.37 93.9262C578.462 93.9262 580.756 93.0425 582.252 91.2753C583.713 89.5081 584.444 87.248 584.444 84.4952C584.444 84.3253 584.444 84.0534 584.444 83.6796C585.158 83.6796 586.602 83.6796 588.777 83.6796C588.777 83.7815 588.777 84.0024 588.777 84.3423C588.777 88.5225 587.621 91.8191 585.31 94.232C582.999 96.611 579.686 97.8005 575.37 97.8005ZM592.804 97.0868C594.673 91.0034 598.429 78.8197 604.07 60.5355C605.362 60.5355 607.928 60.5355 611.768 60.5355C613.671 66.6189 617.444 78.8027 623.085 97.0868C622.304 97.0868 620.774 97.0868 618.497 97.0868C618.055 95.5575 617.121 92.4818 615.693 87.8598C613.11 87.8598 607.928 87.8598 600.145 87.8598C599.669 89.3891 598.735 92.4648 597.341 97.0868C596.56 97.0868 595.047 97.0868 592.804 97.0868ZM601.216 83.8835C603.459 83.8835 607.911 83.8835 614.572 83.8835C613.518 80.451 611.428 73.5519 608.302 63.1864C608.166 63.1864 607.911 63.1864 607.537 63.1864C606.483 66.6529 604.376 73.5519 601.216 83.8835ZM626.807 97.0868C626.807 96.4411 626.807 95.1326 626.807 93.1615C626.807 88.3695 626.807 78.8027 626.807 64.4608C626.807 63.8151 626.807 62.5067 626.807 60.5355C629.865 60.5355 635.983 60.5355 645.159 60.5355C647.266 60.5355 649.152 60.9264 650.817 61.708C652.449 62.4557 653.723 63.5262 654.641 64.9196C655.592 66.279 656.068 67.8764 656.068 69.7116C656.068 69.8135 656.068 69.9665 656.068 70.1704C656.068 71.8696 655.728 73.263 655.048 74.3506C654.403 75.4381 653.621 76.3047 652.703 76.9505C651.786 77.5282 650.902 77.953 650.053 78.2249C650.053 78.3948 650.053 78.6497 650.053 78.9896C650.902 79.1935 651.803 79.6013 652.754 80.2131C653.706 80.8248 654.488 81.6744 655.099 82.762C655.779 83.8835 656.119 85.2939 656.119 86.9931C656.119 87.1291 656.119 87.316 656.119 87.5539C656.119 89.525 655.626 91.2243 654.641 92.6517C653.689 94.1131 652.381 95.2176 650.715 95.9653C649.084 96.713 647.215 97.0868 645.108 97.0868C641.029 97.0868 634.929 97.0868 626.807 97.0868ZM631.191 93.1105C633.434 93.1105 637.903 93.1105 644.598 93.1105C646.909 93.1105 648.676 92.5667 649.9 91.4792C651.123 90.4257 651.735 88.9643 651.735 87.0951C651.735 86.9931 651.735 86.8402 651.735 86.6363C651.735 84.8011 651.123 83.3397 649.9 82.2522C648.676 81.1646 646.909 80.6209 644.598 80.6209C641.641 80.6209 637.172 80.6209 631.191 80.6209C631.191 82.728 631.191 86.8912 631.191 93.1105ZM631.191 76.6956C633.468 76.6956 637.988 76.6956 644.751 76.6956C646.858 76.6956 648.54 76.1518 649.798 75.0643C651.055 74.0107 651.684 72.6173 651.684 70.8841C651.684 70.7821 651.684 70.6122 651.684 70.3743C651.684 68.5731 651.055 67.1457 649.798 66.0921C648.574 65.0386 646.892 64.5118 644.751 64.5118C641.76 64.5118 637.24 64.5118 631.191 64.5118C631.191 66.5509 631.191 70.6122 631.191 76.6956ZM663.052 97.0868C663.052 91.0034 663.052 78.8197 663.052 60.5355C663.766 60.5355 665.227 60.5355 667.436 60.5355C667.436 66.6189 667.436 78.8027 667.436 97.0868C666.688 97.0868 665.227 97.0868 663.052 97.0868ZM675.797 97.0868C675.797 91.0034 675.797 78.8197 675.797 60.5355C677.224 60.5355 680.062 60.5355 684.31 60.5355C686.417 66.1771 690.665 77.4432 697.054 94.334C697.156 94.334 697.377 94.334 697.717 94.334C697.717 88.6924 697.717 77.4263 697.717 60.5355C698.431 60.5355 699.875 60.5355 702.05 60.5355C702.05 66.6189 702.05 78.8027 702.05 97.0868C700.623 97.0868 697.785 97.0868 693.537 97.0868C691.43 91.4452 687.199 80.1621 680.843 63.2374C680.741 63.2374 680.503 63.2374 680.13 63.2374C680.13 68.8789 680.13 80.1621 680.13 97.0868C679.416 97.0868 677.972 97.0868 675.797 97.0868ZM710.462 97.0868C710.462 91.0034 710.462 78.8197 710.462 60.5355C714.2 60.5355 721.694 60.5355 732.943 60.5355C732.943 61.2152 732.943 62.5407 732.943 64.5118C729.918 64.5118 723.886 64.5118 714.846 64.5118C714.846 66.5509 714.846 70.6292 714.846 76.7465C717.633 76.7465 723.189 76.7465 731.516 76.7465C731.516 77.3923 731.516 78.7007 731.516 80.6719C728.729 80.6719 723.172 80.6719 714.846 80.6719C714.846 82.745 714.846 86.8912 714.846 93.1105C717.904 93.1105 724.022 93.1105 733.198 93.1105C733.198 93.7902 733.198 95.1156 733.198 97.0868C729.425 97.0868 721.847 97.0868 710.462 97.0868ZM748.848 97.0868C748.848 91.6491 748.848 80.7908 748.848 64.5118C746.877 64.5118 742.969 64.5118 737.123 64.5118C737.123 63.8661 737.123 62.5407 737.123 60.5355C741.745 60.5355 751.023 60.5355 764.957 60.5355C764.957 61.2152 764.957 62.5407 764.957 64.5118C763.02 64.5118 759.112 64.5118 753.232 64.5118C753.232 69.9495 753.232 80.8078 753.232 97.0868C752.519 97.0868 751.057 97.0868 748.848 97.0868Z" fill="currentColor"/>
<line x1="504.631" y1="30.0005" x2="504.631" y2="126.722" stroke="currentColor" stroke-width="3"/>
</svg>
