<svg xmlns="http://www.w3.org/2000/svg" viewBox="0 0 24 24" fill="none" class="h-6 w-6">
  <path d="M19.77 3.45a3 3 0 00-4.24 0l-1.92 1.92a1 1 0 01-1.42 0l-1.07-1.07a1 1 0 00-1.42 1.42l1.07 1.07a1 1 0 010 1.42l-1.92 1.92a3 3 0 004.24 4.24l1.92-1.92a1 1 0 011.42 0l1.07 1.07a1 1 0 001.42-1.42l-1.07-1.07a1 1 0 010-1.42l1.92-1.92a3 3 0 00-4.24-4.24l-1.92 1.92a1 1 0 01-1.42 0l-1.07-1.07a1 1 0 10-1.42 1.42l1.07 1.07a1 1 0 010 1.42l-1.92 1.92a3 3 0 004.24 4.24l1.92-1.92a1 1 0 011.42 0l1.07 1.07a1 1 0 101.42-1.42l-1.07-1.07a1 1 0 010-1.42l1.92-1.92a3 3 0 00-4.24-4.24l-1.92 1.92a1 1 0 01-1.42 0l-1.07-1.07a1 1 0 00-1.42 1.42l1.07 1.07a1 1 0 010 1.42l-1.92 1.92a3 3 0 004.24 4.24l1.92-1.92a1 1 0 011.42 0l1.07 1.07a1 1 0 101.42-1.42l-1.07-1.07a1 1 0 010-1.42l1.92-1.92a3 3 0 00-4.24-4.24z" fill="white"/>
</svg>
