<svg xmlns="http://www.w3.org/2000/svg" width="130.342" height="23.279" viewBox="0 0 130.342 23.279">
  <g id="Group_112143" data-name="Group 112143" transform="translate(-1792.02 900.318)">
    <g id="Group_77882" data-name="Group 77882" transform="translate(1792.019 -900.318)">
      <path id="Path_74971" data-name="Path 74971" d="M1800.564-870.988a8.281,8.281,0,0,0-8.545,8.572,8.256,8.256,0,0,0,8.633,8.515c3.513,0,6.788-1.7,8.009-5.568h-4.406a3.784,3.784,0,0,1-3.632,2.054,4.058,4.058,0,0,1-4.257-3.929h12.563C1809.345-866.731,1805.981-870.988,1800.564-870.988Zm-3.99,6.52a3.968,3.968,0,0,1,3.961-3.009,3.813,3.813,0,0,1,3.87,3.009Z" transform="translate(-1792.019 877.181)" fill="#fff"/>
      <path id="Path_74972" data-name="Path 74972" d="M1886.1-857.83c-2.5,0-4.229-1.875-4.2-4.615-.03-2.709,1.639-4.613,4.229-4.613a3.689,3.689,0,0,1,3.779,2.65h4.377c-.625-4.168-4.168-6.579-8.156-6.579a8.325,8.325,0,0,0-8.545,8.543,8.318,8.318,0,0,0,8.515,8.545c3.929,0,7.531-2.293,8.186-6.609h-4.377A3.725,3.725,0,0,1,1886.1-857.83Z" transform="translate(-1859.522 877.181)" fill="#fff"/>
      <path id="Path_74973" data-name="Path 74973" d="M2003.114-815.384h-5.449l-5.376-6.326h5.49Z" transform="translate(-1950.005 838.307)" fill="#fff"/>
      <path id="Path_74974" data-name="Path 74974" d="M1978.758-893.768l-7.472,7.8-2.846,2.84-1.322,1.32v4.415h-4.259v-22.923h4.259v13.367l6.222-6.818Z" transform="translate(-1926.788 900.318)" fill="#fff"/>
      <path id="Path_74975" data-name="Path 74975" d="M2042.282-870.988a8.389,8.389,0,0,0-8.513,8.543,8.37,8.37,0,0,0,8.513,8.545,8.361,8.361,0,0,0,8.545-8.545A8.4,8.4,0,0,0,2042.282-870.988Zm0,13.04a4.205,4.205,0,0,1-4.227-4.5,4.22,4.22,0,0,1,4.227-4.495,4.222,4.222,0,0,1,4.229,4.495A4.207,4.207,0,0,1,2042.282-857.948Z" transform="translate(-1982.726 877.181)" fill="#fff"/>
    </g>
    <g id="Group_77897" data-name="Group 77897" transform="translate(1861.906 -898.207)">
      <path id="Path_74991" data-name="Path 74991" d="M1686.449-492.562H1697.5v11h-4.121v-2.785a5.2,5.2,0,0,1-2.344,2.274,8.237,8.237,0,0,1-3.908.881,9.384,9.384,0,0,1-6.992-2.913,10.093,10.093,0,0,1-2.842-7.347,10.1,10.1,0,0,1,2.928-7.432,9.99,9.99,0,0,1,7.39-2.942,10.093,10.093,0,0,1,6.239,1.975,9.148,9.148,0,0,1,3.453,5.159h-5.173a4.32,4.32,0,0,0-1.777-1.862,5.474,5.474,0,0,0-2.743-.668,5.132,5.132,0,0,0-3.951,1.592,5.975,5.975,0,0,0-1.478,4.235,6.135,6.135,0,0,0,1.379,4.121,4.884,4.884,0,0,0,3.936,1.62,5.88,5.88,0,0,0,2.97-.739,4.371,4.371,0,0,0,1.89-2.132h-5.912Z" transform="translate(-1677.297 501.828)" fill="#ff1ab8"/>
      <path id="Path_74992" data-name="Path 74992" d="M1787.534-498.858a10.11,10.11,0,0,1,7.4-2.97,10.11,10.11,0,0,1,7.4,2.97,9.932,9.932,0,0,1,3,7.347,9.93,9.93,0,0,1-3,7.347,10.108,10.108,0,0,1-7.4,2.97,10.108,10.108,0,0,1-7.4-2.97,9.93,9.93,0,0,1-3-7.347A9.931,9.931,0,0,1,1787.534-498.858Zm11.355,3.24a5.282,5.282,0,0,0-3.951-1.606,5.281,5.281,0,0,0-3.951,1.606,5.644,5.644,0,0,0-1.563,4.107,5.642,5.642,0,0,0,1.563,4.107,5.279,5.279,0,0,0,3.951,1.606,5.28,5.28,0,0,0,3.951-1.606,5.644,5.644,0,0,0,1.563-4.107A5.646,5.646,0,0,0,1798.889-495.618Z" transform="translate(-1762.765 501.828)" fill="#ff1ab8"/>
      <path id="Path_74993" data-name="Path 74993" d="M1896.989-500.008h5.116l-6.281,19.9h-6.082l-6.224-19.9h5.116l4.178,14.041Z" transform="translate(-1841.651 500.377)" fill="#ff1ab8"/>
    </g>
  </g>
</svg>
