<svg width="20" height="20" viewBox="0 0 20 20" fill="none" xmlns="http://www.w3.org/2000/svg">
<path d="M3.29706 11.0592C3.20618 10.6202 2.81503 10.2891 2.34778 10.2891H0.955078V18.4962H2.34773C2.88209 18.4962 3.31699 18.0632 3.31699 17.5312V17.519C3.3041 17.48 3.29701 17.4387 3.29701 17.396L3.29706 11.0592Z" fill="currentColor"/>
<path d="M17.9751 12.8425L12.4816 15.052C12.162 15.4691 11.7016 15.6593 11.2531 15.6593H8.31577C8.09852 15.6593 7.92267 15.4833 7.92267 15.2662C7.92267 15.0492 8.09845 14.8731 8.31577 14.8731H11.2531C11.7058 14.8731 12.037 14.482 12.037 14.0895C12.037 13.6551 11.6853 13.3018 11.2531 13.3018H9.06193C8.1633 13.3018 7.3046 12.8764 6.76493 12.1642C6.36995 11.6473 5.74502 11.3379 5.09393 11.3379H4.10278V17.1221L9.59895 18.9964C9.93522 19.1134 10.3057 19.0751 10.6097 18.8985L18.623 14.2366C18.9756 14.0471 19.1288 13.638 18.9793 13.2656C18.823 12.8835 18.3647 12.6839 17.9751 12.8425Z" fill="currentColor"/>
<path d="M17.8584 8.94375C17.6218 8.22271 17.401 8.12616 17.5754 7.85098L18.0549 7.06088L17.0998 6.10176C16.4517 6.44135 16.2342 6.76946 15.9127 6.5931C15.2651 6.2582 15.0281 6.3403 14.9535 6.02311L14.7334 5.12305H13.3812C13.1588 5.83176 13.2335 6.19935 12.8938 6.30228C12.1833 6.52428 12.1015 6.76095 11.8089 6.58528L11.011 6.10181L10.0557 7.06093C10.4004 7.71613 10.7224 7.91835 10.547 8.24805C10.2111 8.85293 10.3053 9.12605 9.9771 9.20325L9.0769 9.42336V10.7795L9.9771 10.9996C10.3008 11.0757 10.2153 11.3432 10.547 11.9627C10.693 12.2285 10.4772 12.4187 10.437 12.5169H11.2546C12.1115 12.5169 12.8112 13.2087 12.823 14.0657L17.5203 12.1788C17.5125 12.1042 17.5281 12.0295 17.5636 11.9587C18.2018 10.7702 17.4081 11.2796 19.0376 10.7795V9.42338C18.3127 9.20008 17.9714 9.28301 17.8583 8.9437L17.8584 8.94375ZM14.0574 12.1081C12.9528 12.1081 12.0525 11.2079 12.0525 10.1032C12.0525 8.99478 12.9527 8.09458 14.0574 8.09458C15.162 8.09458 16.062 8.99471 16.062 10.1032C16.062 11.2078 15.1619 12.1081 14.0574 12.1081Z" fill="currentColor"/>
<path d="M8.4792 6.57701C8.51852 6.49055 8.55778 6.39621 8.59313 6.30579L9.35576 6.11713C9.52875 6.0739 9.65453 5.91668 9.65453 5.73588V4.13998C9.65453 3.95918 9.52875 3.80196 9.35576 3.75866L8.58923 3.56999C8.55778 3.47956 8.51852 3.38919 8.4792 3.29878L8.88402 2.63054C8.97836 2.47729 8.95479 2.27676 8.8251 2.15099L7.70081 1.02286C7.57119 0.893106 7.37465 0.869539 7.21735 0.963874L6.54522 1.36869C6.45478 1.32937 6.36833 1.29004 6.27797 1.2586L6.0893 0.496032C6.046 0.319149 5.88885 0.197266 5.70798 0.197266H4.11208C3.93128 0.197266 3.774 0.319141 3.73083 0.496032L3.54216 1.2586C3.45174 1.29402 3.3613 1.32937 3.27478 1.36869L2.59868 0.963741C2.44543 0.869404 2.24497 0.892972 2.11913 1.02273L0.990999 2.15091C0.865217 2.27669 0.837679 2.47714 0.932014 2.63046L1.3408 3.30266C1.30147 3.38912 1.26222 3.47954 1.2268 3.56998L0.4682 3.75864C0.291317 3.80181 0.169434 3.95903 0.169434 4.13989V5.73579C0.169434 5.91659 0.291309 6.07381 0.4682 6.11704L1.23077 6.30571C1.26228 6.39614 1.30154 6.48651 1.34086 6.57303L0.932075 7.24523C0.837739 7.40245 0.865279 7.59901 0.99106 7.72869L2.11919 8.85291C2.24498 8.98266 2.44549 9.00623 2.59874 8.91189L3.27484 8.50701C3.36137 8.54633 3.44783 8.58169 3.54223 8.6171L3.72699 9.37967C3.77016 9.55655 3.92744 9.67837 4.10824 9.67837H5.70804C5.88891 9.67837 6.04606 9.55649 6.08936 9.37967L6.27803 8.6171C6.36846 8.58566 6.45491 8.54633 6.54528 8.50701L7.21741 8.91189C7.3747 9.00623 7.57124 8.98266 7.70088 8.85291L8.82516 7.72869C8.95485 7.59894 8.97842 7.40246 8.88408 7.24523L8.4792 6.57701ZM4.91003 7.23339C3.64428 7.23339 2.61436 6.20351 2.61436 4.93773C2.61436 3.67204 3.64425 2.64223 4.91003 2.64223C6.17571 2.64223 7.20553 3.67211 7.20553 4.93773C7.20553 6.20354 6.17571 7.23339 4.91003 7.23339Z" fill="currentColor"/>
</svg>
