<svg width="18" height="21" viewBox="0 0 18 21" fill="currentColor" xmlns="http://www.w3.org/2000/svg">
  <path d="M4.23604 8.78932H3.912C4.03274 7.95062 4.36268 7.15585 4.87143 6.47813C5.71928 7.60057 7.01945 6.29819 5.89777 5.45179C6.57535 4.94305 7.37018 4.6131 8.20895 4.49236C8.01072 5.87919 9.84929 5.891 9.66058 4.50287V4.50295C10.5051 4.61122 11.3099 4.92611 12.0039 5.41958C10.826 6.29501 12.1497 7.62431 13.0271 6.4491L13.027 6.44917C13.516 7.14278 13.8254 7.94677 13.9274 8.7892C12.5729 8.60698 12.5742 10.4234 13.9274 10.2408H13.9273C13.8252 11.0831 13.5154 11.8867 13.0257 12.5793C12.149 11.4067 10.8281 12.7353 12.0012 13.6075H12.0012C11.3073 14.0991 10.5038 14.4136 9.66055 14.5237C9.84578 13.1321 8.0066 13.1557 8.20892 14.5413C7.3688 14.4222 6.57267 14.0916 5.89522 13.5806C7.02159 12.7326 5.71974 11.4285 4.87039 12.5528C4.36232 11.8746 4.03284 11.0795 3.91208 10.2407H4.2362C4.49304 10.237 4.72885 10.0979 4.85624 9.87482C4.98364 9.65179 4.98364 9.37794 4.85624 9.15491C4.72885 8.93181 4.49303 8.79268 4.23613 8.78906L4.23604 8.78932ZM6.398 9.53357C6.4141 10.429 6.90107 11.2495 7.67928 11.6926C8.45749 12.1358 9.41171 12.1358 10.1898 11.6926C10.9681 11.2495 11.455 10.429 11.4711 9.53357C11.455 8.63817 10.9681 7.81756 10.1898 7.37452C9.41162 6.93139 8.45739 6.93139 7.67928 7.37452C6.90107 7.81758 6.4141 8.63819 6.398 9.53357ZM7.84963 9.51513C7.85257 9.89874 8.05777 10.2524 8.38946 10.4452C8.72107 10.6381 9.12986 10.6416 9.4648 10.4544C9.79966 10.2672 10.0109 9.91712 10.0204 9.53358C10.0275 9.24274 9.91768 8.96118 9.71535 8.75205C9.51311 8.54292 9.23533 8.42377 8.9444 8.42135C8.6534 8.41885 8.37366 8.53324 8.16786 8.73889C7.96206 8.94453 7.84736 9.22419 7.84964 9.51512L7.84963 9.51513ZM1.28479 0.579104H16.5849C16.9258 0.578499 17.253 0.713681 17.494 0.954707C17.7351 1.19573 17.8702 1.52287 17.8696 1.86379V17.1639C17.8702 17.5048 17.735 17.832 17.494 18.073C17.253 18.3141 16.9259 18.4493 16.5849 18.4486H15.068V19.8567C15.0684 20.0724 14.9828 20.2794 14.8303 20.4319C14.6778 20.5844 14.4708 20.67 14.2551 20.6696H12.2228C12.0075 20.6687 11.8012 20.5828 11.649 20.4305C11.4967 20.2783 11.4108 20.072 11.4099 19.8567V18.4486H6.45984V19.8567C6.45893 20.072 6.37304 20.2783 6.22077 20.4305C6.06849 20.5828 5.86225 20.6687 5.64693 20.6696H3.61465C3.39894 20.67 3.19194 20.5844 3.03944 20.4319C2.88694 20.2794 2.80135 20.0724 2.80174 19.8567V18.4486H1.28479C0.943888 18.4492 0.61673 18.3141 0.375702 18.073C0.134674 17.832 -0.000520706 17.5049 9.72748e-05 17.1639V1.86379C-0.000507355 1.52289 0.134676 1.19574 0.375702 0.954707C0.616728 0.713679 0.943869 0.578484 1.28479 0.579104ZM4.30553 14.1183C8.70512 18.3904 15.4459 14.9912 15.4205 9.74506C15.4913 8.56925 15.2351 7.39691 14.6802 6.35774C14.1253 5.31869 13.2936 4.45353 12.2771 3.85823C11.2606 3.26299 10.0993 2.9608 8.92151 2.98528C3.15468 2.97009 0.236906 10.1172 4.30533 14.1183L4.30553 14.1183Z" fill="currentColor"/>
</svg>
