<svg width="19" height="18" viewBox="0 0 19 18" fill="currentColor" xmlns="http://www.w3.org/2000/svg">
  <g clip-path="url(#clip0_361_5258)">
    <path d="M18.4993 3.21429V1.07131C18.4993 0.81407 18.3278 0.642578 18.0713 0.642578H0.928065C0.671492 0.642578 0.5 0.81407 0.5 1.07131V16.9283C0.5 17.0998 0.628951 17.2713 0.799778 17.3571H0.92873C1.05702 17.3571 1.18597 17.2713 1.27171 17.1856L5 11.7856H18.0713C18.3285 11.7856 18.5 11.6141 18.5 11.3568V3.21429H18.4993ZM4.7853 7.92832C3.84276 7.92832 3.07105 7.15727 3.07105 6.21407C3.07105 5.27086 3.84276 4.49982 4.7853 4.49982C5.72784 4.49982 6.49956 5.27153 6.49956 6.21407C6.49956 7.15661 5.72851 7.92832 4.7853 7.92832ZM9.5 7.92832C8.55679 7.92832 7.78575 7.15727 7.78575 6.21407C7.78575 5.27086 8.55679 4.49982 9.5 4.49982C10.4432 4.49982 11.2143 5.27153 11.2143 6.21407C11.2143 7.15661 10.4425 7.92832 9.5 7.92832ZM14.214 7.92832C13.2715 7.92832 12.4998 7.15727 12.4998 6.21407C12.4998 5.27086 13.2715 4.49982 14.214 4.49982C15.1566 4.49982 15.9283 5.27153 15.9283 6.21407C15.9283 7.15661 15.1566 7.92832 14.214 7.92832Z" fill="currentColor"/>
  </g>
  <defs>
    <clipPath id="clip0_361_5258">
      <rect width="18" height="16.7145" fill="white" transform="translate(0.5 0.642578)"/>
    </clipPath>
  </defs>
</svg>
