<svg width="17" height="20" viewBox="0 0 17 20" fill="currentColor" xmlns="http://www.w3.org/2000/svg">
  <path d="M16.1071 0.500092H2.87499C1.56556 0.500092 0.5 1.56565 0.5 2.87508V17.126C0.500663 18.4352 1.56556 19.5 2.87499 19.5H16.1071C16.4497 19.5 16.7379 19.2442 16.7798 18.9042C16.8076 18.6789 16.7207 18.4632 16.5624 18.3191C16.2774 18.0452 16.1071 17.5998 16.1071 17.125C16.1071 16.6509 16.2767 16.2069 16.5611 15.9332C16.6977 15.81 16.7843 15.632 16.7857 15.4338V15.4259V1.17857C16.7857 0.803791 16.4821 0.5 16.1071 0.5L16.1071 0.500092ZM3.89284 7.18757C3.89284 7.08375 3.97111 6.99665 4.07426 6.98517L5.03306 6.88025C5.10927 6.87185 5.17126 6.81987 5.19681 6.74771C5.34812 6.32001 5.57866 5.93028 5.86839 5.59255C5.91838 5.53416 5.93193 5.45434 5.90093 5.38404L5.51055 4.49717C5.46873 4.40219 5.5051 4.29064 5.59515 4.23888L6.94028 3.46239C7.03033 3.41033 7.14475 3.43456 7.2063 3.51827L7.77744 4.2975C7.82287 4.35949 7.8982 4.38799 7.97374 4.3737C8.42295 4.28932 8.86134 4.28932 9.31144 4.3737C9.38699 4.38799 9.46253 4.35942 9.50804 4.2975L10.0792 3.51827C10.1407 3.43456 10.2552 3.4104 10.3452 3.46239L11.6903 4.2391C11.7804 4.29116 11.8168 4.40241 11.7749 4.49739L11.3845 5.38426C11.3536 5.45458 11.3671 5.53447 11.4171 5.59277C11.7066 5.93044 11.9371 6.32024 12.0887 6.74794C12.1142 6.8201 12.1764 6.87215 12.2526 6.88047L13.2114 6.98539C13.3145 6.99666 13.3928 7.08376 13.3928 7.1878V8.741C13.3928 8.84482 13.3145 8.93215 13.2114 8.9434L12.2526 9.04832C12.1764 9.05672 12.1144 9.1087 12.0888 9.18086C11.9375 9.60856 11.707 9.99829 11.4172 10.336C11.3672 10.3944 11.3537 10.4742 11.3847 10.5445L11.7751 11.4314C11.8169 11.5264 11.7805 11.6377 11.6905 11.6897L10.3453 12.4662C10.2553 12.5182 10.1407 12.494 10.0793 12.4103L9.50819 11.6311C9.46275 11.5691 9.38743 11.5406 9.31189 11.5549C8.876 11.6367 8.43703 11.6418 7.97419 11.5549C7.89864 11.5406 7.82332 11.5689 7.77789 11.6311L7.20675 12.4103C7.14519 12.494 7.03077 12.5182 6.94073 12.4662L5.5956 11.6897C5.50555 11.6376 5.46918 11.5264 5.511 11.4314L5.90138 10.5445C5.93238 10.4742 5.91883 10.3943 5.86884 10.336C5.57933 9.99836 5.34879 9.60856 5.19726 9.18086C5.17171 9.1087 5.1095 9.05664 5.03351 9.04832L4.07471 8.9434C3.97112 8.93192 3.89285 8.84481 3.89285 8.74077L3.89284 7.18757ZM14.9096 18.1429H2.87499C2.31379 18.1429 1.85714 17.6862 1.85714 17.125C1.85714 16.5638 2.31379 16.1072 2.87499 16.1072H14.9096C14.8048 16.4266 14.7499 16.7706 14.7499 17.125C14.7499 17.4795 14.8048 17.8235 14.9096 18.1429Z" fill="currentColor"/>
  <path d="M7.17384 7.11588C7.64227 6.30479 8.67956 6.02676 9.49058 6.49497C10.3017 6.96341 10.5797 8.0007 10.1115 8.8121C9.64305 9.62319 8.60576 9.90122 7.79474 9.43301C6.98342 8.96428 6.7054 7.927 7.17384 7.11588Z" fill="currentColor"/>
</svg>
