<svg width="18" height="21" viewBox="0 0 18 21" fill="currentColor" xmlns="http://www.w3.org/2000/svg">
  <path d="M15 11.6244H14.32L12.32 13.6244H14.23L16 15.6244H2L3.78 13.6244H5.83L3.83 11.6244H3L0 14.6244V18.6244C0 19.7244 0.89 20.6244 1.99 20.6244H16C16.5304 20.6244 17.0391 20.4137 17.4142 20.0386C17.7893 19.6635 18 19.1548 18 18.6244V14.6244L15 11.6244ZM14 6.57439L9.05 11.5244L5.51 7.98439L10.46 3.03439L14 6.57439ZM9.76 0.914389L3.39 7.28439C3.2973 7.3769 3.22375 7.48679 3.17357 7.60776C3.12339 7.72874 3.09756 7.85842 3.09756 7.98939C3.09756 8.12036 3.12339 8.25004 3.17357 8.37101C3.22375 8.49199 3.2973 8.60187 3.39 8.69439L8.34 13.6444C8.73 14.0344 9.36 14.0344 9.75 13.6444L16.11 7.28439C16.2027 7.19188 16.2763 7.08199 16.3264 6.96101C16.3766 6.84004 16.4024 6.71036 16.4024 6.57939C16.4024 6.44842 16.3766 6.31874 16.3264 6.19776C16.2763 6.07679 16.2027 5.9669 16.11 5.87439L11.16 0.924389C11.0698 0.829991 10.9615 0.754677 10.8416 0.702917C10.7218 0.651156 10.5927 0.624004 10.4621 0.623072C10.3315 0.622139 10.2021 0.647445 10.0815 0.697487C9.96089 0.74753 9.85156 0.821289 9.76 0.914389Z" fill="currentColor"/>
</svg>
